<?xml version="1.0" encoding="utf-8"?>
<!-- Generator: Adobe Illustrator 19.1.0, SVG Export Plug-In . SVG Version: 6.00 Build 0)  -->
<svg version="1.1" id="Layer_1" xmlns="http://www.w3.org/2000/svg" xmlns:xlink="http://www.w3.org/1999/xlink" x="0px" y="0px"
	 viewBox="0 0 65.3 57.2" style="enable-background:new 0 0 65.3 57.2;" xml:space="preserve">
<style type="text/css">
	.st0{fill:#FCE38A;stroke:#0E5F76;stroke-miterlimit:10;}
	.st1{fill:none;stroke:#0E5F76;stroke-miterlimit:10;}
	.st2{fill:#0E5F76;stroke:#0E5F76;stroke-miterlimit:10;}
</style>
<path class="st0" d="M30.4,9.9c0,0,4.6-1.5,4.5-2.7c-0.1-0.8-5.5-2.7-10.3-0.7C22.8,7.2,30.4,9.9,30.4,9.9z"/>
<path class="st0" d="M24.5,37.8c0,0-25,7.8-23.4,15.1C3.8,64.6,68.9,38,64,28.9c-4-7.4-23.2,3.7-23.2,3.7
	c-16.9-15.4-5.3-29.8-12-31.7C26,0.1,14,10.4,24.5,37.8z"/>
<path class="st0" d="M22,7.1c0,0,6.3,2.9,6,3.4c-0.6,0.8-10.6,3.1-11.4,1C16.1,10.1,22,7.1,22,7.1z"/>
<ellipse transform="matrix(0.8957 0.4446 -0.4446 0.8957 23.4368 -13.8411)" class="st0" cx="41.2" cy="43" rx="17.3" ry="11.3"/>
<path class="st0" d="M34,30.5c0,0-1.3-2.4-2.7-0.8s-1.8,8.5,4.4,9.6c6.2,1.1,0.4-2,0-1.9c-3.5,1-3.9-6.3-3.4-6.5
	c1.4-0.6,2.4,7.1,2.8,5.9C35.4,36.3,34,30.5,34,30.5z"/>
<path class="st0" d="M36.2,40.1c1.3,1.7,5.1,3.1,7.2,2.9c3.3-0.3,10.1-5.2,10.1-8.5c0-1.9-1.6-4.7-6.8-6.5
	c-5.6-1.9-10.2-1.8-11.9,0.3C33,30.6,34.4,37.8,36.2,40.1z"/>
<path class="st0" d="M34.9,28.3c2.6,4.4,9.7,7.3,18.6,6.2"/>
<path class="st1" d="M34,38.9c0,7.9,16.2,10.3,12.2,3.3"/>
<path class="st2" d="M54.7,53.3"/>
<path class="st2" d="M50.5,55.3"/>
</svg>
